<svg xmlns="http://www.w3.org/2000/svg" width="400" height="400" viewBox="0 0 400 400">
  <defs>
    <style>
      .s { fill: none; stroke: #ffffff; stroke-width: 1.3; stroke-linecap: round; stroke-linejoin: round; }
    </style>
    <g id="boat">
      <line class="s" x1="14" y1="72" x2="14" y2="4"/>
      <polygon points="14,4 21,7.5 14,11" fill="#ffffff"/>
      <path class="s" d="M14,4 Q32,34 48,68 L14,68 Z"/>
      <line class="s" x1="14" y1="29" x2="28" y2="29"/>
      <line class="s" x1="14" y1="45" x2="37" y2="45"/>
      <line class="s" x1="14" y1="58" x2="43" y2="58"/>
      <line class="s" x1="14" y1="68" x2="48" y2="68"/>
      <path class="s" d="M14,18 Q7,40 3,55 L14,68 Z"/>
      <path class="s" d="M3,72 Q26,79 48,72"/>
    </g>
  </defs>

  <!-- ── Row 0  y=10  right-facing ── -->
  <use href="#boat" transform="translate(5,10)"/>
  <use href="#boat" transform="translate(80,10)"/>
  <use href="#boat" transform="translate(155,10)"/>
  <use href="#boat" transform="translate(230,10)"/>
  <use href="#boat" transform="translate(305,10)"/>

  <!-- ── Row 1  y=105  left-facing ── -->
  <use href="#boat" transform="translate(94,105) scale(-1,1)"/>
  <use href="#boat" transform="translate(169,105) scale(-1,1)"/>
  <use href="#boat" transform="translate(244,105) scale(-1,1)"/>
  <use href="#boat" transform="translate(319,105) scale(-1,1)"/>
  <use href="#boat" transform="translate(394,105) scale(-1,1)"/>

  <!-- ── Row 2  y=200  right-facing ── -->
  <use href="#boat" transform="translate(5,200)"/>
  <use href="#boat" transform="translate(80,200)"/>
  <use href="#boat" transform="translate(155,200)"/>
  <use href="#boat" transform="translate(230,200)"/>
  <use href="#boat" transform="translate(305,200)"/>

  <!-- ── Row 3  y=295  left-facing ── -->
  <use href="#boat" transform="translate(94,295) scale(-1,1)"/>
  <use href="#boat" transform="translate(169,295) scale(-1,1)"/>
  <use href="#boat" transform="translate(244,295) scale(-1,1)"/>
  <use href="#boat" transform="translate(319,295) scale(-1,1)"/>
  <use href="#boat" transform="translate(394,295) scale(-1,1)"/>

</svg>
